<?xml version="1.0" standalone="no"?>
<!DOCTYPE svg PUBLIC "-//W3C//DTD SVG 20010904//EN"
 "http://www.w3.org/TR/2001/REC-SVG-20010904/DTD/svg10.dtd">
<svg version="1.0" xmlns="http://www.w3.org/2000/svg"
 width="8001.000000pt" height="4501.000000pt" viewBox="0 0 8001.000000 4501.000000"
 preserveAspectRatio="xMidYMid meet">
 <rect width="8001" height="4501" fill="white" />
<g transform="translate(0.000000,4501.000000) scale(0.100000,-0.100000)"
fill="#000000" stroke="none">
<path d="M36535 39223 c-1760 -58 -3268 -319 -4759 -823 -1885 -637 -3630
-1558 -5206 -2748 -1917 -1447 -3507 -3346 -4700 -5612 -847 -1608 -1442
-3487 -1709 -5400 -206 -1472 -208 -3032 -5 -4485 240 -1725 801 -3533 1590
-5126 446 -900 899 -1628 1555 -2500 1026 -1363 1959 -2297 3403 -3408 2140
-1646 4837 -2771 7581 -3160 843 -120 1639 -175 2535 -175 609 0 954 14 1465
59 1824 163 3580 632 5267 1409 269 124 842 412 919 462 129 85 190 176 190
284 1 127 -58 223 -166 271 -58 26 -180 31 -255 10 -25 -7 -180 -70 -345 -141
-818 -348 -1575 -599 -2468 -820 -1709 -423 -3430 -562 -5167 -419 -1506 124
-3031 462 -4539 1006 -393 142 -717 276 -1111 463 -747 352 -1755 932 -2392
1375 -967 673 -1970 1574 -2777 2494 -1761 2010 -2986 4429 -3490 6891 -407
1993 -424 4027 -50 6065 325 1775 1018 3536 2062 5244 620 1014 1487 2080
2387 2935 825 785 1534 1347 2360 1871 1612 1024 3182 1711 4887 2139 1877
472 3851 592 5913 360 1178 -132 2231 -360 3275 -709 738 -246 1315 -486 2035
-846 650 -326 1167 -628 1833 -1072 747 -498 1700 -1282 2282 -1878 293 -300
319 -325 380 -354 48 -24 75 -30 150 -33 117 -5 173 16 244 94 103 113 107
249 11 390 -48 72 -361 441 -588 694 -198 221 -836 861 -1047 1051 -1921 1725
-4201 2950 -6725 3614 -1176 310 -2329 480 -3560 525 -232 9 -1041 11 -1265 3z"/>
<path d="M33648 36290 c-566 -814 -1054 -1736 -1283 -2424 -258 -776 -301
-1659 -118 -2439 23 -101 26 -107 42 -93 14 12 41 16 124 16 189 0 397 37 622
111 535 176 978 534 1405 1135 119 168 340 531 340 559 0 13 -319 -2 -415 -20
-468 -85 -896 -299 -1229 -616 -40 -38 -76 -69 -78 -69 -3 0 42 96 101 213
356 712 514 1331 583 2282 24 338 11 1213 -21 1400 l-7 40 -66 -95z"/>
<path d="M39430 34990 c-95 -18 -166 -79 -345 -301 -303 -374 -364 -447 -444
-535 -169 -187 -199 -241 -189 -344 10 -101 66 -177 211 -287 454 -344 783
-727 1006 -1172 137 -272 325 -824 430 -1261 41 -172 103 -481 98 -487 -2 -1
-41 32 -88 74 -454 412 -940 651 -1499 738 -143 23 -514 31 -666 15 -310 -31
-624 -108 -1009 -247 -197 -71 -795 -310 -808 -323 -10 -9 79 -44 172 -68 119
-29 320 -22 561 21 318 56 465 70 680 64 201 -5 280 -17 469 -72 316 -92 632
-258 921 -483 118 -93 310 -261 310 -272 0 -4 -60 -15 -132 -24 -599 -78
-1017 -208 -1361 -423 l-48 -30 59 -26 c90 -41 144 -47 406 -47 506 0 905 -64
1350 -217 493 -169 759 -334 1177 -728 155 -147 188 -150 386 -41 408 223 768
363 1163 451 301 67 571 95 908 95 555 0 1101 -97 1726 -305 185 -61 224 -71
248 -63 15 6 28 17 28 26 0 31 -95 166 -165 235 -154 151 -591 409 -927 548
-413 169 -897 271 -1370 288 -221 8 -236 12 -271 84 -23 45 -15 94 22 140 60
76 336 309 471 398 231 154 478 260 1078 464 627 212 824 308 1001 489 50 50
54 57 43 80 l-11 24 -92 -29 c-116 -36 -305 -74 -469 -94 -118 -14 -246 -20
-970 -45 -669 -22 -1094 -103 -1449 -275 -147 -72 -277 -155 -480 -309 -167
-127 -181 -136 -208 -136 -42 0 -55 39 -74 233 -115 1130 -440 2181 -967 3122
-43 77 -133 239 -201 360 -170 305 -255 430 -370 546 -126 125 -213 167 -311
149z"/>
<path d="M44635 30220 c-350 -17 -669 -43 -1152 -96 -35 -4 -63 -11 -63 -15 0
-5 8 -9 18 -9 31 0 333 -77 454 -116 62 -20 185 -64 273 -99 l160 -63 190 -16
c939 -82 1889 -295 2721 -609 529 -200 1081 -474 1569 -779 1043 -652 1902
-1518 2547 -2568 729 -1187 1153 -2538 1273 -4055 69 -881 33 -1714 -115
-2632 -27 -165 -94 -524 -106 -564 -2 -9 154 142 348 336 194 193 412 407 484
476 l132 124 36 190 c102 534 165 1005 208 1545 18 224 18 1150 0 1360 -35
416 -88 790 -172 1210 -254 1269 -682 2278 -1364 3220 -759 1047 -1804 1884
-3013 2411 -965 420 -1987 657 -3193 739 -209 15 -999 21 -1235 10z"/>
<path d="M37015 29953 c-132 -7 -410 -35 -580 -59 -1146 -160 -2340 -641
-3485 -1405 -827 -552 -1508 -1188 -2070 -1934 -534 -709 -1034 -1663 -1334
-2543 -257 -754 -449 -1752 -521 -2702 -20 -253 -30 -824 -20 -1061 l7 -177
57 -7 c31 -4 148 -24 261 -45 113 -22 261 -49 328 -60 382 -64 731 -66 975 -4
l69 17 -6 31 c-12 68 -47 371 -62 546 -21 251 -30 898 -15 1160 74 1291 396
2374 1029 3460 255 438 695 1035 906 1230 l27 25 -7 -55 c-4 -36 -34 -117 -85
-231 -177 -400 -287 -683 -427 -1109 -398 -1204 -581 -2256 -608 -3481 -6
-266 9 -886 22 -931 4 -12 28 9 96 84 204 225 398 356 606 412 206 55 416 59
611 11 57 -14 106 -23 108 -21 2 2 6 37 9 78 2 40 9 156 14 258 63 1104 300
2334 657 3400 442 1322 1109 2486 1950 3403 262 285 578 564 900 795 61 44
110 81 109 83 -4 5 959 765 1013 800 l41 26 -68 7 c-65 6 -387 5 -507 -1z"/>
<path d="M40793 27088 c-182 -173 -346 -436 -451 -723 -74 -205 -163 -547
-217 -839 -50 -271 -74 -655 -41 -643 8 3 94 51 190 106 206 119 304 156 389
148 143 -13 277 -169 313 -366 43 -236 217 -1330 283 -1781 82 -562 161 -1252
161 -1404 0 -151 -39 -295 -112 -410 -18 -28 -100 -121 -183 -207 -152 -157
-197 -219 -242 -329 -46 -115 -57 -190 -57 -400 -1 -214 10 -273 74 -401 146
-289 496 -529 828 -569 156 -19 318 13 433 86 95 59 223 200 288 316 49 86
103 141 178 181 109 57 177 66 503 66 294 0 393 5 905 46 396 32 603 44 815
47 214 4 668 -10 770 -23 212 -26 335 -176 358 -435 8 -87 1 -239 -12 -282 -9
-27 -5 -27 80 -1 253 78 702 406 1110 813 201 201 227 241 205 309 -33 98
-340 300 -921 607 -190 100 -466 237 -526 260 -21 8 -21 8 -7 -53 9 -39 13
-99 11 -162 -3 -84 -7 -109 -31 -160 -50 -108 -126 -167 -289 -224 -124 -43
-227 -59 -438 -66 -222 -7 -422 -22 -1005 -75 -632 -57 -803 -70 -1050 -76
-253 -7 -348 5 -450 55 -77 38 -89 52 -169 189 -120 207 -203 290 -390 388
-50 26 -94 52 -99 58 -45 65 -94 410 -182 1291 -68 686 -89 868 -125 1120 -16
110 -58 450 -94 755 -112 954 -109 902 -63 971 33 50 96 77 212 89 55 6 174
20 265 31 91 11 216 23 278 27 l113 7 -65 109 c-36 60 -91 141 -120 180 -92
119 -330 393 -470 541 -73 77 -204 223 -291 325 -220 256 -314 357 -400 431
-67 57 -177 129 -198 129 -5 0 -33 -24 -64 -52z"/>
<path d="M50485 22171 c-76 -19 -126 -63 -146 -131 -10 -32 -4 -94 35 -386
152 -1145 191 -1756 151 -2334 -92 -1304 -412 -2419 -993 -3460 -803 -1438
-1977 -2543 -3532 -3325 -1829 -919 -3851 -1303 -6060 -1150 -1355 95 -2512
360 -3602 826 -864 369 -1598 851 -2335 1531 -104 97 -151 117 -223 98 -92
-25 -111 -61 -154 -300 -63 -346 -84 -698 -67 -1081 17 -363 54 -698 84 -755
24 -46 60 -74 277 -217 1106 -725 2363 -1271 3665 -1592 705 -174 1313 -266
2170 -327 245 -18 1315 -18 1560 0 717 52 1329 139 1980 283 1236 274 2357
699 3375 1282 286 164 618 374 651 413 9 11 107 179 219 374 1082 1889 2448
3887 3553 5197 189 224 176 201 202 359 77 457 99 744 100 1284 0 418 -2 469
-23 625 -94 706 -283 1478 -627 2569 -45 143 -79 187 -158 211 -55 16 -58 16
-102 6z"/>
<path d="M32825 15189 c-173 -23 -368 -96 -517 -196 -39 -26 -151 -124 -248
-218 -254 -244 -380 -329 -595 -397 -233 -75 -278 -179 -225 -508 44 -266 128
-885 122 -891 -4 -4 -21 -10 -38 -13 l-31 -7 -233 513 c-128 282 -251 556
-272 608 -62 153 -92 187 -178 205 -19 3 -109 24 -200 45 -238 56 -331 70
-455 70 -198 0 -332 -47 -498 -174 -120 -91 -300 -209 -438 -287 -146 -82
-203 -137 -219 -211 -11 -47 -10 -63 5 -113 9 -32 115 -259 235 -504 212 -434
247 -510 401 -866 80 -186 319 -667 473 -950 626 -1152 1216 -1996 1553 -2219
143 -96 339 -131 471 -87 155 53 265 159 457 441 301 441 480 581 765 597 81
5 111 2 205 -22 93 -23 116 -25 147 -16 39 12 68 45 86 100 19 54 14 89 -24
196 -262 734 -381 1289 -425 1985 -15 237 -6 792 16 990 48 435 137 809 327
1375 118 351 129 405 94 457 -24 36 -68 55 -172 73 -203 34 -432 44 -589 24z"/>
</g>
</svg>
